{
    "asset" : {
        "extensions" : {
            "ASOBO_normal_map_convention" : {
                "tangent_space_convention" : "DirectX"
            }
        },
        "generator" : "Khronos glTF Blender I/O v3.3.36 and Asobo Studio MSFS Blender I/O v1.3.3",
        "version" : "2.0"
    },
    "extensionsUsed" : [
        "ASOBO_normal_map_convention",
        "ASOBO_unique_id",
        "KHR_materials_specular",
        "KHR_materials_ior"
    ],
    "scene" : 0,
    "scenes" : [
        {
            "name" : "Scene",
            "nodes" : [
                0,
                1,
                2,
                3,
                4,
                5,
                6,
                7
            ]
        }
    ],
    "nodes" : [
        {
            "extensions" : {
                "ASOBO_unique_id" : {
                    "id" : "ai.roll.ref_ai.roll.ref.mesh.001"
                }
            },
            "mesh" : 0,
            "name" : "ai.roll.ref_ai.roll.ref.mesh.001",
            "rotation" : [
                0.5220074653625488,
                0.5120645761489868,
                -0.4770078957080841,
                0.4876079261302948
            ],
            "translation" : [
                -0.0019725884776562452,
                -0.059033166617155075,
                0.13093142211437225
            ]
        },
        {
            "extensions" : {
                "ASOBO_unique_id" : {
                    "id" : "ai.roll.indicator_ai.roll.indicator.mesh.001"
                }
            },
            "mesh" : 1,
            "name" : "ai.roll.indicator_ai.roll.indicator.mesh.001",
            "rotation" : [
                0.511681318283081,
                0.5219419598579407,
                -0.46617940068244934,
                0.4984331429004669
            ],
            "translation" : [
                -0.0019725884776562452,
                -0.059033166617155075,
                0.13093142211437225
            ]
        },
        {
            "extensions" : {
                "ASOBO_unique_id" : {
                    "id" : "ai.pitch.indicator_ai.pitch.indicator.mesh.001"
                }
            },
            "mesh" : 2,
            "name" : "ai.pitch.indicator_ai.pitch.indicator.mesh.001",
            "rotation" : [
                0.5220074653625488,
                0.5120645761489868,
                -0.4770078957080841,
                0.4876079261302948
            ],
            "translation" : [
                -0.0019725884776562452,
                -0.059033166617155075,
                0.13093142211437225
            ]
        },
        {
            "extensions" : {
                "ASOBO_unique_id" : {
                    "id" : "ai.fd.bars_ai.fd.bars.mesh.001"
                }
            },
            "mesh" : 3,
            "name" : "ai.fd.bars_ai.fd.bars.mesh.001",
            "rotation" : [
                0.5220074653625488,
                0.5120645761489868,
                -0.4770078957080841,
                0.4876079261302948
            ],
            "translation" : [
                -0.0019725884776562452,
                -0.059033166617155075,
                0.13093142211437225
            ]
        },
        {
            "extensions" : {
                "ASOBO_unique_id" : {
                    "id" : "ai.cursor.R_ai.cursor.R.mesh.001"
                }
            },
            "mesh" : 4,
            "name" : "ai.cursor.R_ai.cursor.R.mesh.001",
            "rotation" : [
                0.5220074653625488,
                0.5120645761489868,
                -0.4770078957080841,
                0.4876079261302948
            ],
            "translation" : [
                -0.0019725884776562452,
                -0.059033166617155075,
                0.13093142211437225
            ]
        },
        {
            "extensions" : {
                "ASOBO_unique_id" : {
                    "id" : "ai.cursor.L_ai.cursor.L.mesh.001"
                }
            },
            "mesh" : 5,
            "name" : "ai.cursor.L_ai.cursor.L.mesh.001",
            "rotation" : [
                0.5220074653625488,
                0.5120645761489868,
                -0.4770078957080841,
                0.4876079261302948
            ],
            "translation" : [
                -0.0019725884776562452,
                -0.059033166617155075,
                0.13093142211437225
            ]
        },
        {
            "extensions" : {
                "ASOBO_unique_id" : {
                    "id" : "ai.cursor.C_ai.cursor.C.mesh.001"
                }
            },
            "mesh" : 6,
            "name" : "ai.cursor.C_ai.cursor.C.mesh.001",
            "rotation" : [
                0.5220074653625488,
                0.5120645761489868,
                -0.4770078957080841,
                0.4876079261302948
            ],
            "translation" : [
                -0.004911973141133785,
                -0.03858860209584236,
                0.12119456380605698
            ]
        },
        {
            "extensions" : {
                "ASOBO_unique_id" : {
                    "id" : "ai.background_ai.background.mesh.001"
                }
            },
            "mesh" : 7,
            "name" : "ai.background_ai.background.mesh.001",
            "rotation" : [
                0.5228577256202698,
                0.5112312436103821,
                -0.477900892496109,
                0.48669618368148804
            ],
            "translation" : [
                -0.0019725884776562452,
                -0.059033166617155075,
                0.13093142211437225
            ]
        }
    ],
    "materials" : [
        {
            "doubleSided" : true,
            "emissiveFactor" : [
                0,
                0,
                0
            ],
            "extras" : {},
            "name" : "DefaultWhite_pfd.png.002",
            "pbrMetallicRoughness" : {
                "baseColorTexture" : {
                    "index" : 0
                },
                "metallicFactor" : 0,
                "roughnessFactor" : 0.6900347471237183
            }
        },
        {
            "doubleSided" : true,
            "emissiveFactor" : [
                0,
                0,
                0
            ],
            "extensions" : {
                "KHR_materials_specular" : {
                    "specularColorFactor" : [
                        1.897086119821904,
                        1.897086119821904,
                        1.897086119821904
                    ]
                },
                "KHR_materials_ior" : {
                    "ior" : 1.4500000476837158
                }
            },
            "extras" : {},
            "name" : "None_pitchscale.png.002",
            "pbrMetallicRoughness" : {
                "baseColorTexture" : {
                    "index" : 1
                },
                "metallicFactor" : 0
            }
        },
        {
            "doubleSided" : true,
            "emissiveFactor" : [
                0,
                0,
                0
            ],
            "extras" : {},
            "name" : "DefaultWhite_attitude_indicator.png.002",
            "pbrMetallicRoughness" : {
                "baseColorTexture" : {
                    "index" : 2
                },
                "metallicFactor" : 0,
                "roughnessFactor" : 0.6900347471237183
            }
        }
    ],
    "meshes" : [
        {
            "name" : "ai.roll.ref_ai.roll.ref.mesh.001",
            "primitives" : [
                {
                    "attributes" : {
                        "POSITION" : 0,
                        "NORMAL" : 1,
                        "TEXCOORD_0" : 2
                    },
                    "indices" : 3,
                    "material" : 0
                }
            ]
        },
        {
            "name" : "ai.roll.indicator_ai.roll.indicator.mesh.001",
            "primitives" : [
                {
                    "attributes" : {
                        "POSITION" : 4,
                        "NORMAL" : 5,
                        "TEXCOORD_0" : 6
                    },
                    "indices" : 7,
                    "material" : 0
                }
            ]
        },
        {
            "name" : "ai.pitch.indicator_ai.pitch.indicator.mesh.001",
            "primitives" : [
                {
                    "attributes" : {
                        "POSITION" : 8,
                        "NORMAL" : 9,
                        "TEXCOORD_0" : 10
                    },
                    "indices" : 11,
                    "material" : 1
                }
            ]
        },
        {
            "name" : "ai.fd.bars_ai.fd.bars.mesh.001",
            "primitives" : [
                {
                    "attributes" : {
                        "POSITION" : 12,
                        "NORMAL" : 13,
                        "TEXCOORD_0" : 14
                    },
                    "indices" : 15,
                    "material" : 0
                }
            ]
        },
        {
            "name" : "ai.cursor.R_ai.cursor.R.mesh.001",
            "primitives" : [
                {
                    "attributes" : {
                        "POSITION" : 16,
                        "NORMAL" : 17,
                        "TEXCOORD_0" : 18
                    },
                    "indices" : 19,
                    "material" : 0
                }
            ]
        },
        {
            "name" : "ai.cursor.L_ai.cursor.L.mesh.001",
            "primitives" : [
                {
                    "attributes" : {
                        "POSITION" : 20,
                        "NORMAL" : 21,
                        "TEXCOORD_0" : 22
                    },
                    "indices" : 23,
                    "material" : 0
                }
            ]
        },
        {
            "name" : "ai.cursor.C_ai.cursor.C.mesh.001",
            "primitives" : [
                {
                    "attributes" : {
                        "POSITION" : 24,
                        "NORMAL" : 25,
                        "TEXCOORD_0" : 26
                    },
                    "indices" : 27,
                    "material" : 0
                }
            ]
        },
        {
            "name" : "ai.background_ai.background.mesh.001",
            "primitives" : [
                {
                    "attributes" : {
                        "POSITION" : 28,
                        "NORMAL" : 29,
                        "TEXCOORD_0" : 30
                    },
                    "indices" : 31,
                    "material" : 2
                }
            ]
        }
    ],
    "textures" : [
        {
            "sampler" : 0,
            "source" : 0
        },
        {
            "sampler" : 0,
            "source" : 1
        },
        {
            "sampler" : 0,
            "source" : 2
        }
    ],
    "images" : [
        {
            "mimeType" : "image/png",
            "name" : "pfd",
            "uri" : "pfd.png"
        },
        {
            "mimeType" : "image/png",
            "name" : "pitchscale",
            "uri" : "pitchscale.png"
        },
        {
            "mimeType" : "image/png",
            "name" : "attitude_indicator",
            "uri" : "attitude_indicator.png"
        }
    ],
    "accessors" : [
        {
            "bufferView" : 0,
            "componentType" : 5126,
            "count" : 152,
            "max" : [
                -1.7715699672698975,
                0.31774699687957764,
                -0.11293800175189972
            ],
            "min" : [
                -1.7715729475021362,
                0.23635700345039368,
                -0.13809199631214142
            ],
            "type" : "VEC3"
        },
        {
            "bufferView" : 1,
            "componentType" : 5126,
            "count" : 152,
            "type" : "VEC3"
        },
        {
            "bufferView" : 2,
            "componentType" : 5126,
            "count" : 152,
            "type" : "VEC2"
        },
        {
            "bufferView" : 3,
            "componentType" : 5123,
            "count" : 228,
            "type" : "SCALAR"
        },
        {
            "bufferView" : 4,
            "componentType" : 5126,
            "count" : 14,
            "max" : [
                -1.7719550132751465,
                0.28053298592567444,
                -0.12617099285125732
            ],
            "min" : [
                -1.7719550132751465,
                0.27351999282836914,
                -0.1330530047416687
            ],
            "type" : "VEC3"
        },
        {
            "bufferView" : 5,
            "componentType" : 5126,
            "count" : 14,
            "type" : "VEC3"
        },
        {
            "bufferView" : 6,
            "componentType" : 5126,
            "count" : 14,
            "type" : "VEC2"
        },
        {
            "bufferView" : 7,
            "componentType" : 5123,
            "count" : 18,
            "type" : "SCALAR"
        },
        {
            "bufferView" : 8,
            "componentType" : 5126,
            "count" : 45,
            "max" : [
                -1.7719550132751465,
                0.31027498841285706,
                -0.06912299990653992
            ],
            "min" : [
                -1.7719550132751465,
                0.24306699633598328,
                -0.12651599943637848
            ],
            "type" : "VEC3"
        },
        {
            "bufferView" : 9,
            "componentType" : 5126,
            "count" : 45,
            "type" : "VEC3"
        },
        {
            "bufferView" : 10,
            "componentType" : 5126,
            "count" : 45,
            "type" : "VEC2"
        },
        {
            "bufferView" : 11,
            "componentType" : 5123,
            "count" : 78,
            "type" : "SCALAR"
        },
        {
            "bufferView" : 12,
            "componentType" : 5126,
            "count" : 6,
            "max" : [
                -1.7718759775161743,
                0.2936500012874603,
                -0.08466000109910965
            ],
            "min" : [
                -1.7718759775161743,
                0.25995001196861267,
                -0.09335199743509293
            ],
            "type" : "VEC3"
        },
        {
            "bufferView" : 13,
            "componentType" : 5126,
            "count" : 6,
            "type" : "VEC3"
        },
        {
            "bufferView" : 14,
            "componentType" : 5126,
            "count" : 6,
            "type" : "VEC2"
        },
        {
            "bufferView" : 15,
            "componentType" : 5123,
            "count" : 12,
            "type" : "SCALAR"
        },
        {
            "bufferView" : 16,
            "componentType" : 5126,
            "count" : 9,
            "max" : [
                -1.7717889547348022,
                0.25110000371932983,
                -0.09158500283956528
            ],
            "min" : [
                -1.7717889547348022,
                0.23454900085926056,
                -0.09438399970531464
            ],
            "type" : "VEC3"
        },
        {
            "bufferView" : 17,
            "componentType" : 5126,
            "count" : 9,
            "type" : "VEC3"
        },
        {
            "bufferView" : 18,
            "componentType" : 5126,
            "count" : 9,
            "type" : "VEC2"
        },
        {
            "bufferView" : 19,
            "componentType" : 5123,
            "count" : 9,
            "type" : "SCALAR"
        },
        {
            "bufferView" : 20,
            "componentType" : 5126,
            "count" : 9,
            "max" : [
                -1.7718069553375244,
                0.31914201378822327,
                -0.09158500283956528
            ],
            "min" : [
                -1.7718069553375244,
                0.302590012550354,
                -0.09438300132751465
            ],
            "type" : "VEC3"
        },
        {
            "bufferView" : 21,
            "componentType" : 5126,
            "count" : 9,
            "type" : "VEC3"
        },
        {
            "bufferView" : 22,
            "componentType" : 5126,
            "count" : 9,
            "type" : "VEC2"
        },
        {
            "bufferView" : 23,
            "componentType" : 5123,
            "count" : 9,
            "type" : "SCALAR"
        },
        {
            "bufferView" : 24,
            "componentType" : 5126,
            "count" : 6,
            "max" : [
                -1.7718069553375244,
                0.29211100935935974,
                -0.0856110006570816
            ],
            "min" : [
                -1.7718069553375244,
                0.2614839971065521,
                -0.09301599860191345
            ],
            "type" : "VEC3"
        },
        {
            "bufferView" : 25,
            "componentType" : 5126,
            "count" : 6,
            "type" : "VEC3"
        },
        {
            "bufferView" : 26,
            "componentType" : 5126,
            "count" : 6,
            "type" : "VEC2"
        },
        {
            "bufferView" : 27,
            "componentType" : 5123,
            "count" : 6,
            "type" : "SCALAR"
        },
        {
            "bufferView" : 28,
            "componentType" : 5126,
            "count" : 4,
            "max" : [
                -1.7723840475082397,
                0.37454500794410706,
                0.0047610001638531685
            ],
            "min" : [
                -1.7723840475082397,
                0.15719099342823029,
                -0.14226099848747253
            ],
            "type" : "VEC3"
        },
        {
            "bufferView" : 29,
            "componentType" : 5126,
            "count" : 4,
            "type" : "VEC3"
        },
        {
            "bufferView" : 30,
            "componentType" : 5126,
            "count" : 4,
            "type" : "VEC2"
        },
        {
            "bufferView" : 31,
            "componentType" : 5123,
            "count" : 6,
            "type" : "SCALAR"
        }
    ],
    "bufferViews" : [
        {
            "buffer" : 0,
            "byteLength" : 1824,
            "byteOffset" : 0,
            "target" : 34962
        },
        {
            "buffer" : 0,
            "byteLength" : 1824,
            "byteOffset" : 1824,
            "target" : 34962
        },
        {
            "buffer" : 0,
            "byteLength" : 1216,
            "byteOffset" : 3648,
            "target" : 34962
        },
        {
            "buffer" : 0,
            "byteLength" : 456,
            "byteOffset" : 4864,
            "target" : 34963
        },
        {
            "buffer" : 0,
            "byteLength" : 168,
            "byteOffset" : 5320,
            "target" : 34962
        },
        {
            "buffer" : 0,
            "byteLength" : 168,
            "byteOffset" : 5488,
            "target" : 34962
        },
        {
            "buffer" : 0,
            "byteLength" : 112,
            "byteOffset" : 5656,
            "target" : 34962
        },
        {
            "buffer" : 0,
            "byteLength" : 36,
            "byteOffset" : 5768,
            "target" : 34963
        },
        {
            "buffer" : 0,
            "byteLength" : 540,
            "byteOffset" : 5804,
            "target" : 34962
        },
        {
            "buffer" : 0,
            "byteLength" : 540,
            "byteOffset" : 6344,
            "target" : 34962
        },
        {
            "buffer" : 0,
            "byteLength" : 360,
            "byteOffset" : 6884,
            "target" : 34962
        },
        {
            "buffer" : 0,
            "byteLength" : 156,
            "byteOffset" : 7244,
            "target" : 34963
        },
        {
            "buffer" : 0,
            "byteLength" : 72,
            "byteOffset" : 7400,
            "target" : 34962
        },
        {
            "buffer" : 0,
            "byteLength" : 72,
            "byteOffset" : 7472,
            "target" : 34962
        },
        {
            "buffer" : 0,
            "byteLength" : 48,
            "byteOffset" : 7544,
            "target" : 34962
        },
        {
            "buffer" : 0,
            "byteLength" : 24,
            "byteOffset" : 7592,
            "target" : 34963
        },
        {
            "buffer" : 0,
            "byteLength" : 108,
            "byteOffset" : 7616,
            "target" : 34962
        },
        {
            "buffer" : 0,
            "byteLength" : 108,
            "byteOffset" : 7724,
            "target" : 34962
        },
        {
            "buffer" : 0,
            "byteLength" : 72,
            "byteOffset" : 7832,
            "target" : 34962
        },
        {
            "buffer" : 0,
            "byteLength" : 18,
            "byteOffset" : 7904,
            "target" : 34963
        },
        {
            "buffer" : 0,
            "byteLength" : 108,
            "byteOffset" : 7924,
            "target" : 34962
        },
        {
            "buffer" : 0,
            "byteLength" : 108,
            "byteOffset" : 8032,
            "target" : 34962
        },
        {
            "buffer" : 0,
            "byteLength" : 72,
            "byteOffset" : 8140,
            "target" : 34962
        },
        {
            "buffer" : 0,
            "byteLength" : 18,
            "byteOffset" : 8212,
            "target" : 34963
        },
        {
            "buffer" : 0,
            "byteLength" : 72,
            "byteOffset" : 8232,
            "target" : 34962
        },
        {
            "buffer" : 0,
            "byteLength" : 72,
            "byteOffset" : 8304,
            "target" : 34962
        },
        {
            "buffer" : 0,
            "byteLength" : 48,
            "byteOffset" : 8376,
            "target" : 34962
        },
        {
            "buffer" : 0,
            "byteLength" : 12,
            "byteOffset" : 8424,
            "target" : 34963
        },
        {
            "buffer" : 0,
            "byteLength" : 48,
            "byteOffset" : 8436,
            "target" : 34962
        },
        {
            "buffer" : 0,
            "byteLength" : 48,
            "byteOffset" : 8484,
            "target" : 34962
        },
        {
            "buffer" : 0,
            "byteLength" : 32,
            "byteOffset" : 8532,
            "target" : 34962
        },
        {
            "buffer" : 0,
            "byteLength" : 12,
            "byteOffset" : 8564,
            "target" : 34963
        }
    ],
    "samplers" : [
        {
            "magFilter" : 9729,
            "minFilter" : 9987
        }
    ],
    "buffers" : [
        {
            "byteLength" : 8576,
            "uri" : "tecnamp2008jc_interior.bin"
        }
    ]
}
