{"accessors":[{"bufferView":0,"componentType":5126,"count":152,"min":[-1.7715729475021363,0.23635700345039369,-0.13809199631214143],"max":[-1.7715699672698975,0.31774699687957766,-0.11293800175189972],"type":"VEC3","name":"ai.roll.ref_ai.roll.ref.mesh.001_vertices#0_POSITION"},{"bufferView":0,"byteOffset":12,"componentType":5120,"count":152,"type":"VEC4","name":"ai.roll.ref_ai.roll.ref.mesh.001_vertices#0_TANGENT"},{"bufferView":0,"byteOffset":16,"componentType":5120,"count":152,"type":"VEC4","name":"ai.roll.ref_ai.roll.ref.mesh.001_vertices#0_NORMAL"},{"bufferView":0,"byteOffset":20,"componentType":5122,"count":152,"type":"VEC2","name":"ai.roll.ref_ai.roll.ref.mesh.001_vertices#0_TEXCOORD_0"},{"bufferView":0,"byteOffset":24,"componentType":5122,"count":152,"type":"VEC2","name":"ai.roll.ref_ai.roll.ref.mesh.001_vertices#0_TEXCOORD_1"},{"bufferView":0,"byteOffset":28,"componentType":5123,"count":152,"type":"VEC4","name":"ai.roll.ref_ai.roll.ref.mesh.001_vertices#0_COLOR_0"},{"bufferView":1,"componentType":5123,"count":228,"type":"SCALAR","name":"ai.roll.ref_ai.roll.ref.mesh.001_indices#0"},{"bufferView":0,"byteOffset":5472,"componentType":5126,"count":14,"min":[-1.7719550132751465,0.27351999282836916,-0.1330530047416687],"max":[-1.7719550132751465,0.28053298592567446,-0.12617099285125733],"type":"VEC3","name":"ai.roll.indicator_ai.roll.indicator.mesh.001_vertices#0_POSITION"},{"bufferView":0,"byteOffset":5484,"componentType":5120,"count":14,"type":"VEC4","name":"ai.roll.indicator_ai.roll.indicator.mesh.001_vertices#0_TANGENT"},{"bufferView":0,"byteOffset":5488,"componentType":5120,"count":14,"type":"VEC4","name":"ai.roll.indicator_ai.roll.indicator.mesh.001_vertices#0_NORMAL"},{"bufferView":0,"byteOffset":5492,"componentType":5122,"count":14,"type":"VEC2","name":"ai.roll.indicator_ai.roll.indicator.mesh.001_vertices#0_TEXCOORD_0"},{"bufferView":0,"byteOffset":5496,"componentType":5122,"count":14,"type":"VEC2","name":"ai.roll.indicator_ai.roll.indicator.mesh.001_vertices#0_TEXCOORD_1"},{"bufferView":0,"byteOffset":5500,"componentType":5123,"count":14,"type":"VEC4","name":"ai.roll.indicator_ai.roll.indicator.mesh.001_vertices#0_COLOR_0"},{"bufferView":1,"byteOffset":456,"componentType":5123,"count":18,"type":"SCALAR","name":"ai.roll.indicator_ai.roll.indicator.mesh.001_indices#0"},{"bufferView":0,"byteOffset":5976,"componentType":5126,"count":50,"min":[-1.7719550132751465,0.24306699633598329,-0.12651599943637849],"max":[-1.7719550132751465,0.31027498841285708,-0.06912299990653992],"type":"VEC3","name":"ai.pitch.indicator_ai.pitch.indicator.mesh.001_vertices#0_POSITION"},{"bufferView":0,"byteOffset":5988,"componentType":5120,"count":50,"type":"VEC4","name":"ai.pitch.indicator_ai.pitch.indicator.mesh.001_vertices#0_TANGENT"},{"bufferView":0,"byteOffset":5992,"componentType":5120,"count":50,"type":"VEC4","name":"ai.pitch.indicator_ai.pitch.indicator.mesh.001_vertices#0_NORMAL"},{"bufferView":0,"byteOffset":5996,"componentType":5122,"count":50,"type":"VEC2","name":"ai.pitch.indicator_ai.pitch.indicator.mesh.001_vertices#0_TEXCOORD_0"},{"bufferView":0,"byteOffset":6000,"componentType":5122,"count":50,"type":"VEC2","name":"ai.pitch.indicator_ai.pitch.indicator.mesh.001_vertices#0_TEXCOORD_1"},{"bufferView":0,"byteOffset":6004,"componentType":5123,"count":50,"type":"VEC4","name":"ai.pitch.indicator_ai.pitch.indicator.mesh.001_vertices#0_COLOR_0"},{"bufferView":1,"byteOffset":492,"componentType":5123,"count":78,"type":"SCALAR","name":"ai.pitch.indicator_ai.pitch.indicator.mesh.001_indices#0"},{"bufferView":0,"byteOffset":7776,"componentType":5126,"count":6,"min":[-1.7718759775161744,0.25995001196861269,-0.09335199743509293],"max":[-1.7718759775161744,0.2936500012874603,-0.08466000109910965],"type":"VEC3","name":"ai.fd.bars_ai.fd.bars.mesh.001_vertices#0_POSITION"},{"bufferView":0,"byteOffset":7788,"componentType":5120,"count":6,"type":"VEC4","name":"ai.fd.bars_ai.fd.bars.mesh.001_vertices#0_TANGENT"},{"bufferView":0,"byteOffset":7792,"componentType":5120,"count":6,"type":"VEC4","name":"ai.fd.bars_ai.fd.bars.mesh.001_vertices#0_NORMAL"},{"bufferView":0,"byteOffset":7796,"componentType":5122,"count":6,"type":"VEC2","name":"ai.fd.bars_ai.fd.bars.mesh.001_vertices#0_TEXCOORD_0"},{"bufferView":0,"byteOffset":7800,"componentType":5122,"count":6,"type":"VEC2","name":"ai.fd.bars_ai.fd.bars.mesh.001_vertices#0_TEXCOORD_1"},{"bufferView":0,"byteOffset":7804,"componentType":5123,"count":6,"type":"VEC4","name":"ai.fd.bars_ai.fd.bars.mesh.001_vertices#0_COLOR_0"},{"bufferView":1,"byteOffset":648,"componentType":5123,"count":12,"type":"SCALAR","name":"ai.fd.bars_ai.fd.bars.mesh.001_indices#0"},{"bufferView":0,"byteOffset":7992,"componentType":5126,"count":9,"min":[-1.7717889547348023,0.23454900085926057,-0.09438399970531464],"max":[-1.7717889547348023,0.25110000371932986,-0.09158500283956528],"type":"VEC3","name":"ai.cursor.R_ai.cursor.R.mesh.001_vertices#0_POSITION"},{"bufferView":0,"byteOffset":8004,"componentType":5120,"count":9,"type":"VEC4","name":"ai.cursor.R_ai.cursor.R.mesh.001_vertices#0_TANGENT"},{"bufferView":0,"byteOffset":8008,"componentType":5120,"count":9,"type":"VEC4","name":"ai.cursor.R_ai.cursor.R.mesh.001_vertices#0_NORMAL"},{"bufferView":0,"byteOffset":8012,"componentType":5122,"count":9,"type":"VEC2","name":"ai.cursor.R_ai.cursor.R.mesh.001_vertices#0_TEXCOORD_0"},{"bufferView":0,"byteOffset":8016,"componentType":5122,"count":9,"type":"VEC2","name":"ai.cursor.R_ai.cursor.R.mesh.001_vertices#0_TEXCOORD_1"},{"bufferView":0,"byteOffset":8020,"componentType":5123,"count":9,"type":"VEC4","name":"ai.cursor.R_ai.cursor.R.mesh.001_vertices#0_COLOR_0"},{"bufferView":1,"byteOffset":672,"componentType":5123,"count":9,"type":"SCALAR","name":"ai.cursor.R_ai.cursor.R.mesh.001_indices#0"},{"bufferView":0,"byteOffset":8316,"componentType":5126,"count":9,"min":[-1.7718069553375245,0.302590012550354,-0.09438300132751465],"max":[-1.7718069553375245,0.31914201378822329,-0.09158500283956528],"type":"VEC3","name":"ai.cursor.L_ai.cursor.L.mesh.001_vertices#0_POSITION"},{"bufferView":0,"byteOffset":8328,"componentType":5120,"count":9,"type":"VEC4","name":"ai.cursor.L_ai.cursor.L.mesh.001_vertices#0_TANGENT"},{"bufferView":0,"byteOffset":8332,"componentType":5120,"count":9,"type":"VEC4","name":"ai.cursor.L_ai.cursor.L.mesh.001_vertices#0_NORMAL"},{"bufferView":0,"byteOffset":8336,"componentType":5122,"count":9,"type":"VEC2","name":"ai.cursor.L_ai.cursor.L.mesh.001_vertices#0_TEXCOORD_0"},{"bufferView":0,"byteOffset":8340,"componentType":5122,"count":9,"type":"VEC2","name":"ai.cursor.L_ai.cursor.L.mesh.001_vertices#0_TEXCOORD_1"},{"bufferView":0,"byteOffset":8344,"componentType":5123,"count":9,"type":"VEC4","name":"ai.cursor.L_ai.cursor.L.mesh.001_vertices#0_COLOR_0"},{"bufferView":1,"byteOffset":690,"componentType":5123,"count":9,"type":"SCALAR","name":"ai.cursor.L_ai.cursor.L.mesh.001_indices#0"},{"bufferView":0,"byteOffset":8640,"componentType":5126,"count":6,"min":[-1.7718069553375245,0.2614839971065521,-0.09301599860191345],"max":[-1.7718069553375245,0.29211100935935976,-0.0856110006570816],"type":"VEC3","name":"ai.cursor.C_ai.cursor.C.mesh.001_vertices#0_POSITION"},{"bufferView":0,"byteOffset":8652,"componentType":5120,"count":6,"type":"VEC4","name":"ai.cursor.C_ai.cursor.C.mesh.001_vertices#0_TANGENT"},{"bufferView":0,"byteOffset":8656,"componentType":5120,"count":6,"type":"VEC4","name":"ai.cursor.C_ai.cursor.C.mesh.001_vertices#0_NORMAL"},{"bufferView":0,"byteOffset":8660,"componentType":5122,"count":6,"type":"VEC2","name":"ai.cursor.C_ai.cursor.C.mesh.001_vertices#0_TEXCOORD_0"},{"bufferView":0,"byteOffset":8664,"componentType":5122,"count":6,"type":"VEC2","name":"ai.cursor.C_ai.cursor.C.mesh.001_vertices#0_TEXCOORD_1"},{"bufferView":0,"byteOffset":8668,"componentType":5123,"count":6,"type":"VEC4","name":"ai.cursor.C_ai.cursor.C.mesh.001_vertices#0_COLOR_0"},{"bufferView":1,"byteOffset":708,"componentType":5123,"count":6,"type":"SCALAR","name":"ai.cursor.C_ai.cursor.C.mesh.001_indices#0"},{"bufferView":0,"byteOffset":8856,"componentType":5126,"count":4,"min":[-1.7723840475082398,0.15719099342823029,-0.14226099848747254],"max":[-1.7723840475082398,0.37454500794410708,0.0047610001638531689],"type":"VEC3","name":"ai.background_ai.background.mesh.001_vertices#0_POSITION"},{"bufferView":0,"byteOffset":8868,"componentType":5120,"count":4,"type":"VEC4","name":"ai.background_ai.background.mesh.001_vertices#0_TANGENT"},{"bufferView":0,"byteOffset":8872,"componentType":5120,"count":4,"type":"VEC4","name":"ai.background_ai.background.mesh.001_vertices#0_NORMAL"},{"bufferView":0,"byteOffset":8876,"componentType":5122,"count":4,"type":"VEC2","name":"ai.background_ai.background.mesh.001_vertices#0_TEXCOORD_0"},{"bufferView":0,"byteOffset":8880,"componentType":5122,"count":4,"type":"VEC2","name":"ai.background_ai.background.mesh.001_vertices#0_TEXCOORD_1"},{"bufferView":0,"byteOffset":8884,"componentType":5123,"count":4,"type":"VEC4","name":"ai.background_ai.background.mesh.001_vertices#0_COLOR_0"},{"bufferView":1,"byteOffset":720,"componentType":5123,"count":6,"type":"SCALAR","name":"ai.background_ai.background.mesh.001_indices#0"}],"asset":{"generator":"Khronos glTF Blender I/O v3.3.36 and Asobo Studio MSFS Blender I/O v1.3.3","version":"2.0","extensions":{"ASOBO_asset_optimized":{"BoundingBoxMax":[-1.7715699672698975,0.37454500794410708,0.0047610001638531689],"BoundingBoxMin":[-1.7723840475082398,0.15719099342823029,-0.14226099848747254],"MajorVersion":4,"MinorVersion":4,"UseCheckerboardMaterialForMissingTextures":true,"UseOnlyFilenameForImageURI":true},"ASOBO_normal_map_convention":{"tangent_space_convention":"DirectX"}}},"bufferViews":[{"buffer":0,"byteLength":9000,"byteStride":36,"target":34962,"name":"BufferViewVertexND"},{"buffer":0,"byteLength":732,"byteOffset":9000,"target":34963,"name":"BufferViewIndex"}],"extensionsRequired":["MSFT_texture_dds"],"materials":[{"name":"DefaultWhite_pfd.png.002","doubleSided":true,"pbrMetallicRoughness":{"metallicFactor":0.0,"roughnessFactor":0.6900347471237183,"baseColorTexture":{"index":0}}},{"name":"None_pitchscale.png.002","doubleSided":true,"pbrMetallicRoughness":{"metallicFactor":0.0,"baseColorTexture":{"index":1}}},{"name":"DefaultWhite_attitude_indicator.png.002","doubleSided":true,"pbrMetallicRoughness":{"metallicFactor":0.0,"roughnessFactor":0.6900347471237183,"baseColorTexture":{"index":2}}}],"meshes":[{"primitives":[{"attributes":{"COLOR_0":5,"NORMAL":2,"POSITION":0,"TANGENT":1,"TEXCOORD_0":3,"TEXCOORD_1":4},"indices":6,"material":0,"mode":4,"extras":{"ASOBO_primitive":{"PrimitiveCount":76,"VertexType":"VTX","VertexVersion":2}}}],"name":"ai.roll.ref_ai.roll.ref.mesh.001"},{"primitives":[{"attributes":{"COLOR_0":12,"NORMAL":9,"POSITION":7,"TANGENT":8,"TEXCOORD_0":10,"TEXCOORD_1":11},"indices":13,"material":0,"mode":4,"extras":{"ASOBO_primitive":{"PrimitiveCount":6,"VertexType":"VTX","VertexVersion":2}}}],"name":"ai.roll.indicator_ai.roll.indicator.mesh.001"},{"primitives":[{"attributes":{"COLOR_0":19,"NORMAL":16,"POSITION":14,"TANGENT":15,"TEXCOORD_0":17,"TEXCOORD_1":18},"indices":20,"material":1,"mode":4,"extras":{"ASOBO_primitive":{"PrimitiveCount":26,"VertexType":"VTX","VertexVersion":2}}}],"name":"ai.pitch.indicator_ai.pitch.indicator.mesh.001"},{"primitives":[{"attributes":{"COLOR_0":26,"NORMAL":23,"POSITION":21,"TANGENT":22,"TEXCOORD_0":24,"TEXCOORD_1":25},"indices":27,"material":0,"mode":4,"extras":{"ASOBO_primitive":{"PrimitiveCount":4,"VertexType":"VTX","VertexVersion":2}}}],"name":"ai.fd.bars_ai.fd.bars.mesh.001"},{"primitives":[{"attributes":{"COLOR_0":33,"NORMAL":30,"POSITION":28,"TANGENT":29,"TEXCOORD_0":31,"TEXCOORD_1":32},"indices":34,"material":0,"mode":4,"extras":{"ASOBO_primitive":{"PrimitiveCount":3,"VertexType":"VTX","VertexVersion":2}}}],"name":"ai.cursor.R_ai.cursor.R.mesh.001"},{"primitives":[{"attributes":{"COLOR_0":40,"NORMAL":37,"POSITION":35,"TANGENT":36,"TEXCOORD_0":38,"TEXCOORD_1":39},"indices":41,"material":0,"mode":4,"extras":{"ASOBO_primitive":{"PrimitiveCount":3,"VertexType":"VTX","VertexVersion":2}}}],"name":"ai.cursor.L_ai.cursor.L.mesh.001"},{"primitives":[{"attributes":{"COLOR_0":47,"NORMAL":44,"POSITION":42,"TANGENT":43,"TEXCOORD_0":45,"TEXCOORD_1":46},"indices":48,"material":0,"mode":4,"extras":{"ASOBO_primitive":{"PrimitiveCount":2,"VertexType":"VTX","VertexVersion":2}}}],"name":"ai.cursor.C_ai.cursor.C.mesh.001"},{"primitives":[{"attributes":{"COLOR_0":54,"NORMAL":51,"POSITION":49,"TANGENT":50,"TEXCOORD_0":52,"TEXCOORD_1":53},"indices":55,"material":2,"mode":4,"extras":{"ASOBO_primitive":{"PrimitiveCount":2,"VertexType":"VTX","VertexVersion":2}}}],"name":"ai.background_ai.background.mesh.001"}],"nodes":[{"translation":[-0.0019725884776562454,-0.059033166617155078,0.13093142211437226],"rotation":[0.5220074653625488,0.5120645761489868,-0.4770078957080841,0.4876079261302948],"mesh":0,"extensions":{"ASOBO_unique_id":{"id":"ai.roll.ref_ai.roll.ref.mesh.001"}},"name":"ai.roll.ref_ai.roll.ref.mesh.001"},{"translation":[-0.0019725884776562454,-0.059033166617155078,0.13093142211437226],"rotation":[0.511681318283081,0.5219419598579407,-0.46617940068244936,0.4984331429004669],"mesh":1,"extensions":{"ASOBO_unique_id":{"id":"ai.roll.indicator_ai.roll.indicator.mesh.001"}},"name":"ai.roll.indicator_ai.roll.indicator.mesh.001"},{"translation":[-0.0019725884776562454,-0.059033166617155078,0.13093142211437226],"rotation":[0.5220074653625488,0.5120645761489868,-0.4770078957080841,0.4876079261302948],"mesh":2,"extensions":{"ASOBO_unique_id":{"id":"ai.pitch.indicator_ai.pitch.indicator.mesh.001"}},"name":"ai.pitch.indicator_ai.pitch.indicator.mesh.001"},{"translation":[-0.0019725884776562454,-0.059033166617155078,0.13093142211437226],"rotation":[0.5220074653625488,0.5120645761489868,-0.4770078957080841,0.4876079261302948],"mesh":3,"extensions":{"ASOBO_unique_id":{"id":"ai.fd.bars_ai.fd.bars.mesh.001"}},"name":"ai.fd.bars_ai.fd.bars.mesh.001"},{"translation":[-0.0019725884776562454,-0.059033166617155078,0.13093142211437226],"rotation":[0.5220074653625488,0.5120645761489868,-0.4770078957080841,0.4876079261302948],"mesh":4,"extensions":{"ASOBO_unique_id":{"id":"ai.cursor.R_ai.cursor.R.mesh.001"}},"name":"ai.cursor.R_ai.cursor.R.mesh.001"},{"translation":[-0.0019725884776562454,-0.059033166617155078,0.13093142211437226],"rotation":[0.5220074653625488,0.5120645761489868,-0.4770078957080841,0.4876079261302948],"mesh":5,"extensions":{"ASOBO_unique_id":{"id":"ai.cursor.L_ai.cursor.L.mesh.001"}},"name":"ai.cursor.L_ai.cursor.L.mesh.001"},{"translation":[-0.004911973141133785,-0.03858860209584236,0.12119456380605698],"rotation":[0.5220074653625488,0.5120645761489868,-0.4770078957080841,0.4876079261302948],"mesh":6,"extensions":{"ASOBO_unique_id":{"id":"ai.cursor.C_ai.cursor.C.mesh.001"}},"name":"ai.cursor.C_ai.cursor.C.mesh.001"},{"translation":[-0.0019725884776562454,-0.059033166617155078,0.13093142211437226],"rotation":[0.5228577256202698,0.5112312436103821,-0.477900892496109,0.486696183681488],"mesh":7,"extensions":{"ASOBO_unique_id":{"id":"ai.background_ai.background.mesh.001"}},"name":"ai.background_ai.background.mesh.001"}],"scene":0,"scenes":[{"nodes":[0,1,2,3,4,5,6,7],"name":"Scene"}],"textures":[{"extensions":{"MSFT_texture_dds":{"source":0}}},{"extensions":{"MSFT_texture_dds":{"source":1}}},{"extensions":{"MSFT_texture_dds":{"source":2}}}],"samplers":[{"magFilter":9729,"minFilter":9987,"wrapS":10497,"wrapT":10497}],"extensionsUsed":["ASOBO_normal_map_convention","ASOBO_unique_id","MSFT_texture_dds","ASOBO_asset_optimized"],"buffers":[{"byteLength":9732,"uri":"tecnamp2008jc_interior.bin"}],"images":[{"uri":"PFD.PNG.DDS","name":"pfd","extras":"ASOBO_image_converted_meta"},{"uri":"PITCHSCALE.PNG.DDS","name":"pitchscale","extras":"ASOBO_image_converted_meta"},{"uri":"ATTITUDE_INDICATOR.PNG.DDS","name":"attitude_indicator","extras":"ASOBO_image_converted_meta"}]}
